<?xml version="1.0" encoding="UTF-8" standalone="no"?>
<!DOCTYPE svg PUBLIC "-//W3C//DTD SVG 1.1//EN" "http://www.w3.org/Graphics/SVG/1.1/DTD/svg11.dtd">
<svg t="1734862219489" class="icon" viewBox="0 0 1024 1024" version="1.1" xmlns="http://www.w3.org/2000/svg" 
p-id="1701" xmlns:xlink="http://www.w3.org/1999/xlink" width="32" height="32">
  <path
    d="M844.1856 558.4896a30.9248 30.9248 0 0 0 21.1968-21.0432c8.0384-45.2096-79.3088-96.2048-132.9152-122.624 0.9216-2.4576 2.6112-5.888 5.12-10.0352 44.9536-105.984 23.1936-155.2896 20.6848-160.3072-30.7712-64-115.0976-60.416-117.6576-60.5184-78.7968 0.256-149.9648 59.4944-186.4192 95.744l-262.0928-154.624a21.504 21.504 0 0 0-21.8624 36.9664l254.464 150.2208c-42.5984 53.7088-45.568 104.192-45.4656 104.192-11.9296 74.9568 69.2736 113.2544 71.424 114.176l71.936 39.4752c8.96 5.3248 14.7968 11.0592 15.5648 15.4624 0.6656 3.584-2.4064 7.424-3.0208 8.0896l-90.4704 111.4624-292.2496-161.8432a20.4288 20.4288 0 1 0-19.8144 35.7888l585.1648 324.0448c13.3632 7.0144 34.2016 13.6192 57.1392 13.6192 29.2864 0 62.0032-10.8032 86.784-45.312a20.48 20.48 0 0 0-33.2288-23.9104c-33.7408 46.9504-86.016 22.272-91.2896 19.5584l-174.3872-96.5632 74.0352-79.1552c77.1584-79.0528 64.1024-131.4304 63.1296-133.7856-2.8672-22.3232-14.1824-42.3424-28.8256-59.648 85.8624 50.7392 142.592 70.5536 173.056 60.5696z m-237.0048 104.6016L525.824 750.08l-44.7488-24.7808 84.992-104.7552c1.6384-1.792 16.0256-18.0224 12.6976-40.7552-2.6112-17.6128-14.4896-32.7168-35.8912-45.2608l-73.728-40.3968c-0.5632-0.3072-56.4736-27.0336-49.2032-73.472 0-0.4608 2.7648-42.7008 40.1408-87.296l0.1024-0.1024 112.128 66.1504-13.1584 8.0384c-10.24 5.12-21.0432 15.7184-20.6336 30.0544 0.2048 8.96 4.7616 21.504 24.6784 30.1568 24.8832 11.9808 90.624 52.4288 96.6144 97.7408 0.0512 0.3584 7.168 36.4544-52.6336 97.6896z m15.2576-234.1376c1.0752 12.4928 3.1232 22.528 5.7856 30.208a341.9136 341.9136 0 0 0-37.3248-23.3472l20.992-13.1072 10.5472 6.2464z m45.8752 19.456l-0.5632-0.3584a59.8016 59.8016 0 0 1-4.7616-20.6336c4.2496-44.5952-7.6288-54.4256-11.5712-57.7024l-12.288-7.68-10.3936 2.9184-14.848 9.0624-123.136-72.6528c33.792-31.8976 91.1872-76.2368 150.8352-76.3904 0.6656-0.0512 60.7744-2.1504 79.616 37.12 0.1536 0.3584 15.9232 38.912-19.456 123.2384-2.3552 3.4816-13.9776 21.8112-10.3424 40.0896 1.792 9.1136 6.912 16.64 16.9984 23.0912 46.5408 22.7328 91.0848 52.2752 108.6976 70.8096-19.4048-3.2768-62.1056-17.408-148.7872-70.912zM824.0128 107.264a77.9776 77.9776 0 1 0 0 155.9552 77.9776 77.9776 0 0 0 0-155.9552z m0 122.0096a44.0832 44.0832 0 0 1 0-88.064 44.0832 44.0832 0 0 1 0 88.064z"
    p-id="1702"
  ></path>
</svg>